<?xml version="1.0" standalone="no"?><!-- Generator: Gravit.io --><svg xmlns="http://www.w3.org/2000/svg" xmlns:xlink="http://www.w3.org/1999/xlink" style="isolation:isolate" viewBox="0 0 600 600" width="600" height="600"><defs><clipPath id="_clipPath_cAf2uzBpDwBrkZ1lzlJ492uMp9gxtjAR"><rect width="600" height="600"/></clipPath></defs><g clip-path="url(#_clipPath_cAf2uzBpDwBrkZ1lzlJ492uMp9gxtjAR)"><g style="isolation:isolate" id="Layer 0"><path d=" M 117.138 436.995 Q 130.089 442.376 130.109 447.867 Q 123.999 458.567 130.109 459.91 Q 136.219 461.253 130.109 475.966 L 125.984 490.015 Q 123.554 498.269 125.984 504.065 C 128.414 509.86 121.325 509.226 119.796 514.1 C 118.267 518.975 111.455 522.911 103.57 526.159 C 95.684 529.408 93.824 542.606 90.001 547.481 C 86.752 551.624 75.26 559.992 72.556 576.319 C 69.852 592.646 77.066 596.771 92.984 586.354 C 108.902 575.937 106.273 558.911 117.734 552.234 C 129.194 545.557 138.267 504.345 146.609 504.065 C 154.95 503.784 172.826 461.388 177.546 457.903 C 182.267 454.417 376.709 217.311 410.608 209.028 Q 444.508 200.744 484.858 203.007 Q 503.575 205.382 501.358 182.936 C 499.142 160.491 490.642 135.521 497.233 112.689 C 503.825 89.857 547.501 48.955 517.858 28.393 Q 488.215 7.831 484.858 24.379 Q 471.846 46.2 472.483 52.478 Q 473.082 58.382 464.233 62.513 Q 448.617 64.243 447.733 78.569 Q 446.85 92.895 429.171 82.583 Q 389.595 49.894 381.733 52.478 Q 373.365 55.228 367.296 46.456 Q 349.516 43.197 346.671 66.527 C 343.826 89.857 336.64 67.857 326.046 62.513 C 315.452 57.169 303.366 62.398 295.109 82.583 Q 286.851 102.769 268.296 96.633 Q 256.433 92.556 257.984 108.675 Q 259.534 124.794 268.296 138.781 Q 286.424 158.186 268.296 174.908 Q 250.169 191.63 268.296 198.993 Q 274.497 205.05 251.796 215.049 Q 229.096 225.048 262.109 235.12 Q 271.262 248.116 257.984 255.19 Q 244.705 262.264 245.609 275.261 Q 227.115 293.791 224.984 277.268 C 222.852 260.745 233.137 249.419 222.921 253.183 C 212.706 256.947 213.292 256.795 212.609 265.225 C 211.925 273.656 218.868 284.241 206.421 287.303 Q 193.974 290.365 200.234 307.373 Q 203.484 325.572 194.046 325.437 C 184.608 325.302 179.292 321.448 179.609 329.451 C 179.925 337.454 165.817 332.066 158.984 331.458 C 148.133 330.493 109.301 330.158 117.138 391.658 Q 119.512 409.106 111.546 409.733 Q 92.625 416.366 101.631 427.797 C 110.637 439.227 110.431 434.208 117.138 436.995 Z " fill="rgb(249,244,129)"/><path d=" M 121.699 429.062 Q 135.514 428.887 131.817 444.811 Q 125.822 455.306 131.817 456.623 C 134.972 457.316 138.879 467.316 134.583 475.966 C 130.288 484.616 128.98 494.392 130.109 497.084 C 132.493 502.769 123.199 511.686 121.699 516.467 C 120.199 521.249 117.294 522.34 109.558 525.526 C 101.822 528.712 105.215 542.399 101.464 547.181 C 98.276 551.245 81.858 554.79 79.205 570.805 C 76.553 586.82 74.384 594.527 90.001 584.31 C 105.618 574.092 105.894 553.731 117.138 547.181 C 128.382 540.632 140.962 502.756 148.005 499.933 C 155.048 497.11 173.726 458.073 178.357 454.654 C 179.373 453.905 197.317 432.141 217.991 406.617 C 246.703 371.17 280.682 328.469 281.898 324.723 C 287.434 307.673 383.982 214.783 411.767 203.007 C 443.205 189.683 457.446 189.54 464.233 190.824 C 471.021 192.109 498.223 206.965 496.048 184.949 C 493.874 162.933 485.534 138.441 492.001 116.046 C 498.468 93.651 543.583 53.531 514.5 33.363 Q 485.417 13.195 484.858 29.425 Q 467.094 50.829 467.719 56.987 Q 468.307 62.778 462.164 70.767 Q 449.463 68.527 448.596 82.579 Q 447.729 96.631 425.225 86.516 Q 386.397 54.452 378.685 56.987 Q 370.474 59.685 364.52 51.081 Q 354.469 47.883 351.678 70.767 C 348.888 93.651 334.443 72.071 324.05 66.83 C 313.657 61.588 301.799 66.717 293.697 86.516 Q 285.596 106.316 272.206 100.297 Q 259.8 96.298 261.321 112.109 Q 262.843 127.92 267.392 141.639 Q 289.991 160.672 272.206 177.074 Q 254.421 193.477 268.296 196.639 Q 279.545 206.64 257.274 216.447 Q 235.003 226.255 261.321 236.134 Q 270.301 248.882 257.274 255.821 Q 244.247 262.759 245.133 275.507 Q 226.99 293.683 224.898 277.476 C 222.807 261.269 232.897 250.16 222.875 253.852 C 212.852 257.544 213.428 257.394 212.757 265.664 C 212.086 273.933 218.898 284.315 206.686 287.319 Q 194.475 290.323 200.616 307.006 Q 205.87 330.762 196.61 330.629 C 187.351 330.497 178.047 326.413 178.357 334.262 C 178.668 342.112 162.609 338.735 155.905 338.139 C 145.259 337.193 114.01 331.335 121.699 391.658 Q 124.028 408.772 117.138 413.735 Q 98.698 413.913 107.535 425.125 C 116.371 436.336 107.884 429.237 121.699 429.062 Z " fill="rgb(77,170,66)"/></g><g style="isolation:isolate" id="Layer 1"/></g></svg>